<svg width="420" height="74" viewBox="0 0 420 74" fill="none" xmlns="http://www.w3.org/2000/svg">
<path d="M405.756 0.116041C407.446 0.32604 409.836 1.08604 411.276 1.87604C413.316 2.99604 415.626 5.05604 416.856 6.86604C419.706 11.066 420.416 16.176 418.816 20.986C418.026 23.356 416.856 25.226 414.986 27.106C412.636 29.446 410.136 30.786 406.776 31.506C405.256 31.836 402.296 31.836 400.776 31.506C397.426 30.796 394.916 29.446 392.576 27.096C390.226 24.756 388.876 22.246 388.166 18.896C387.836 17.376 387.836 14.416 388.166 12.896C388.996 9.00604 390.926 5.83604 393.926 3.42604C397.146 0.846041 401.616 -0.403957 405.756 0.116041ZM401.346 1.83604C398.526 2.29604 395.886 3.68604 393.726 5.84604C392.456 7.10604 391.576 8.34604 390.876 9.83604C389.936 11.816 389.536 13.676 389.546 15.996C389.546 18.296 390.016 20.276 391.046 22.306C394.216 28.536 401.296 31.556 407.976 29.536C412.336 28.206 416.086 24.456 417.416 20.096C419.456 13.356 416.346 6.18604 410.046 3.10604C407.276 1.75604 404.436 1.33604 401.346 1.83604Z" fill="#664E38"/>
<path d="M355.126 1.56601C356.636 1.70601 358.586 2.25601 360.026 2.95601C364.156 4.93601 367.026 8.71601 367.936 13.346C368.176 14.596 368.186 17.216 367.936 18.446C366.746 24.476 362.236 28.966 356.256 30.066C354.876 30.316 352.346 30.296 351.006 30.006C345.166 28.776 340.896 24.506 339.666 18.666C339.376 17.326 339.356 14.796 339.606 13.416C340.696 7.45601 345.206 2.90601 351.176 1.74601C351.986 1.58601 354.276 1.48601 355.126 1.56601ZM350.816 3.33601C345.836 4.56601 342.186 8.34601 341.106 13.396C340.966 14.056 340.926 14.656 340.936 16.046C340.946 17.716 340.966 17.926 341.246 18.996C342.856 25.046 348.246 29.066 354.366 28.766C361.506 28.426 366.966 22.456 366.646 15.346C366.536 12.846 365.856 10.776 364.476 8.70601C362.466 5.70601 359.396 3.75601 355.726 3.13601C354.476 2.92601 352.086 3.02601 350.816 3.33601Z" fill="#664E38"/>
<path d="M305.276 3.10599C310.846 3.75599 315.436 8.08599 316.446 13.646C316.666 14.846 316.656 17.056 316.436 18.216C315.426 23.496 311.376 27.546 306.096 28.556C304.936 28.776 302.726 28.786 301.526 28.566C294.516 27.296 289.886 20.636 291.116 13.596C292.056 8.27599 296.376 4.05599 301.776 3.18599C302.686 3.04599 304.386 3.00599 305.276 3.10599ZM300.846 4.72599C296.876 5.77599 293.686 8.96599 292.596 12.966C292.356 13.866 292.336 14.096 292.336 15.896C292.336 17.706 292.356 17.916 292.606 18.846C293.106 20.696 294.446 22.996 295.736 24.206C297.106 25.496 299.106 26.616 300.806 27.046C304.856 28.076 309.036 26.946 311.936 24.056C315.406 20.576 316.296 15.246 314.136 10.846C313.596 9.73599 312.556 8.28599 311.816 7.58599C310.236 6.09599 308.246 5.05599 306.126 4.59599C304.776 4.30599 302.216 4.36599 300.846 4.72599Z" fill="#664E38"/>
<path d="M255.226 4.64603C259.826 5.27603 263.576 8.55603 264.726 12.936C265.266 14.976 265.266 16.726 264.736 18.816C263.946 21.926 261.676 24.676 258.726 26.096C255.556 27.626 251.966 27.626 248.816 26.096C245.236 24.356 242.906 20.986 242.466 16.926C242.106 13.596 243.486 9.98603 246.016 7.62603C247.856 5.90603 250.076 4.89603 252.666 4.59603C253.716 4.47603 254.076 4.48603 255.226 4.64603ZM251.276 6.02603C247.616 6.97603 244.776 9.85603 243.856 13.556C243.526 14.896 243.546 17.076 243.906 18.426C244.856 22.016 247.656 24.806 251.246 25.766C252.596 26.126 254.766 26.146 256.116 25.816C259.816 24.896 262.656 22.096 263.656 18.396C264.006 17.076 264.026 14.886 263.696 13.556C262.676 9.46603 259.386 6.45603 255.216 5.79603C254.226 5.64603 252.346 5.75603 251.276 6.02603Z" fill="#664E38"/>
<path d="M204.746 6.10602C208.946 6.47602 212.546 9.72602 213.426 13.956C213.636 14.986 213.636 16.806 213.426 17.836C212.546 22.096 208.986 25.286 204.696 25.686C202.836 25.856 201.116 25.536 199.426 24.696C196.356 23.176 194.296 20.196 193.986 16.816C193.566 12.266 196.346 8.00602 200.676 6.55602C201.956 6.13602 203.296 5.98602 204.746 6.10602ZM201.526 7.34602C199.016 8.03602 196.896 9.83602 195.786 12.216C195.156 13.556 195.036 14.136 195.026 15.846C195.026 17.436 195.106 17.956 195.556 19.096C195.946 20.096 196.556 21.046 197.316 21.866C198.156 22.766 198.986 23.376 200.096 23.886C201.456 24.526 202.006 24.636 203.776 24.636C205.536 24.636 206.096 24.526 207.446 23.896C209.416 22.976 210.856 21.546 211.766 19.576C212.406 18.216 212.516 17.666 212.516 15.896C212.516 14.126 212.406 13.576 211.766 12.216C211.096 10.776 209.996 9.45602 208.746 8.60602C207.786 7.94602 206.266 7.34602 205.126 7.15602C204.506 7.05602 202.126 7.18602 201.526 7.34602Z" fill="#664E38"/>
<path d="M155.366 7.696C156.136 7.856 156.796 8.106 157.726 8.576C158.476 8.956 158.796 9.206 159.626 10.036C160.446 10.866 160.716 11.206 161.096 11.946C161.876 13.476 162.026 14.096 162.026 15.896C162.026 17.696 161.886 18.316 161.096 19.846C160.716 20.596 160.466 20.916 159.636 21.746C158.806 22.566 158.466 22.836 157.726 23.216C156.196 23.996 155.576 24.146 153.776 24.146C151.966 24.146 151.346 23.996 149.826 23.216C149.086 22.836 148.746 22.566 147.926 21.746C147.106 20.926 146.836 20.586 146.456 19.846C145.676 18.326 145.526 17.706 145.526 15.896C145.526 14.096 145.676 13.476 146.456 11.946C146.836 11.206 147.106 10.866 147.926 10.036C148.756 9.206 149.076 8.956 149.826 8.576C151.276 7.836 151.906 7.676 153.526 7.636C154.296 7.616 155.126 7.646 155.366 7.696ZM152.006 8.656C149.866 9.136 147.916 10.756 146.976 12.836C146.526 13.816 146.346 14.696 146.346 15.896C146.346 17.096 146.526 17.976 146.976 18.956C147.926 21.046 149.826 22.626 152.056 23.166C152.936 23.376 154.616 23.376 155.496 23.166C157.726 22.626 159.626 21.046 160.576 18.956C161.026 17.976 161.206 17.096 161.206 15.896C161.206 14.226 160.776 12.876 159.836 11.566C158.066 9.076 155.066 7.956 152.006 8.656Z" fill="#664E38"/>
<path d="M105.226 9.246C107.606 9.766 109.416 11.406 110.256 13.786C110.496 14.466 110.526 14.686 110.526 15.896C110.526 17.116 110.496 17.326 110.246 18.046C109.516 20.116 108.036 21.606 105.986 22.336C105.186 22.626 105.036 22.646 103.776 22.646C102.576 22.646 102.346 22.616 101.666 22.376C100.136 21.836 98.9464 20.936 98.1164 19.676C96.7764 17.666 96.6164 15.056 97.6864 12.866C99.0264 10.116 102.216 8.58599 105.226 9.246ZM102.456 9.946C99.7464 10.516 97.6764 13.096 97.6764 15.896C97.6764 19.236 100.436 21.996 103.776 21.996C107.126 21.996 109.876 19.246 109.876 15.896C109.876 14.066 108.946 12.156 107.536 11.096C106.046 9.96599 104.256 9.55599 102.456 9.946Z" fill="#664E38"/>
<path d="M55.0763 10.746C57.4363 11.396 59.0763 13.506 59.0763 15.896C59.0763 18.926 56.4963 21.356 53.4763 21.166C49.5963 20.926 47.3363 16.926 49.0963 13.416C49.4463 12.716 50.3563 11.746 51.0263 11.346C52.1563 10.686 53.9163 10.426 55.0763 10.746ZM52.8563 11.246C52.1363 11.336 51.0363 11.936 50.4163 12.566C48.1363 14.886 48.8063 18.716 51.7563 20.166C52.5163 20.546 52.5263 20.546 53.7763 20.546C55.0263 20.546 55.0363 20.546 55.7963 20.166C57.7763 19.196 58.7963 17.206 58.4263 15.056C58.0863 13.086 56.4063 11.466 54.4763 11.216C53.8163 11.136 53.6963 11.136 52.8563 11.246Z" fill="#664E38"/>
<path d="M4.73636 12.226C7.03636 12.816 8.23636 15.486 7.15636 17.636C7.04636 17.846 6.75636 18.236 6.51636 18.496C4.44636 20.716 0.686363 19.636 0.0763631 16.646C-0.073637 15.936 -0.00363731 15.206 0.296363 14.426C0.596363 13.616 1.50636 12.706 2.32636 12.406C3.06636 12.126 4.05636 12.056 4.73636 12.226ZM2.71636 12.706C2.14636 12.886 1.94636 13.016 1.41636 13.536C0.896363 14.066 0.766363 14.266 0.586363 14.836C0.466363 15.216 0.376363 15.686 0.376363 15.896C0.376363 16.106 0.466363 16.576 0.586363 16.956C0.766363 17.526 0.896363 17.726 1.41636 18.256C1.94636 18.776 2.14636 18.906 2.71636 19.086C3.09636 19.206 3.56636 19.296 3.77636 19.296C3.98636 19.296 4.45636 19.206 4.83636 19.086C5.40636 18.906 5.60636 18.776 6.13636 18.256C6.65636 17.726 6.78636 17.526 6.96636 16.956C7.08636 16.576 7.17636 16.106 7.17636 15.896C7.17636 15.686 7.08636 15.216 6.96636 14.836C6.78636 14.266 6.65636 14.066 6.13636 13.536C5.62636 13.026 5.39636 12.876 4.86636 12.706C4.03636 12.446 3.55636 12.446 2.71636 12.706Z" fill="#664E38"/>
<path d="M13.8984 41.8696C12.2084 42.0796 9.81837 42.8396 8.37837 43.6296C6.33837 44.7496 4.02837 46.8096 2.79837 48.6196C-0.0516315 52.8196 -0.761631 57.9296 0.838369 62.7396C1.62837 65.1096 2.79837 66.9796 4.66837 68.8596C7.01837 71.1996 9.51837 72.5396 12.8784 73.2596C14.3984 73.5896 17.3584 73.5896 18.8784 73.2596C22.2284 72.5496 24.7384 71.1996 27.0784 68.8496C29.4284 66.5096 30.7784 63.9996 31.4884 60.6496C31.8184 59.1296 31.8184 56.1696 31.4884 54.6496C30.6584 50.7596 28.7284 47.5896 25.7284 45.1796C22.5084 42.5996 18.0384 41.3496 13.8984 41.8696ZM18.3084 43.5896C21.1284 44.0496 23.7684 45.4396 25.9284 47.5996C27.1984 48.8596 28.0784 50.0996 28.7784 51.5896C29.7184 53.5696 30.1184 55.4296 30.1084 57.7496C30.1084 60.0496 29.6384 62.0296 28.6084 64.0596C25.4384 70.2896 18.3584 73.3096 11.6784 71.2896C7.31837 69.9596 3.56837 66.2096 2.23837 61.8496C0.198369 55.1096 3.30837 47.9396 9.60837 44.8596C12.3784 43.5096 15.2184 43.0896 18.3084 43.5896Z" fill="#664E38"/>
<path d="M18.3084 43.5896C21.1284 44.0496 23.7684 45.4396 25.9284 47.5996C27.1984 48.8596 28.0784 50.0996 28.7784 51.5896C29.7184 53.5696 30.1184 55.4296 30.1084 57.7496C30.1084 60.0496 29.6384 62.0296 28.6084 64.0596C25.4384 70.2896 18.3584 73.3096 11.6784 71.2896C7.31837 69.9596 3.56837 66.2096 2.23837 61.8496C0.198369 55.1096 3.30837 47.9396 9.60837 44.8596C12.3784 43.5096 15.2184 43.0896 18.3084 43.5896Z" fill="#664E38"/>
<path d="M64.5284 43.3196C63.0184 43.4596 61.0684 44.0096 59.6284 44.7096C55.4984 46.6896 52.6284 50.4696 51.7184 55.0996C51.4784 56.3496 51.4684 58.9696 51.7184 60.1996C52.9084 66.2296 57.4184 70.7196 63.3984 71.8196C64.7784 72.0696 67.3084 72.0496 68.6484 71.7596C74.4884 70.5296 78.7584 66.2596 79.9884 60.4196C80.2784 59.0796 80.2984 56.5496 80.0484 55.1696C78.9584 49.2096 74.4484 44.6596 68.4784 43.4996C67.6684 43.3396 65.3784 43.2396 64.5284 43.3196ZM68.8384 45.0896C73.8184 46.3196 77.4684 50.0996 78.5484 55.1496C78.6884 55.8096 78.7284 56.4096 78.7184 57.7996C78.7084 59.4696 78.6884 59.6796 78.4084 60.7496C76.7984 66.7996 71.4084 70.8196 65.2884 70.5196C58.1484 70.1796 52.6884 64.2096 53.0084 57.0996C53.1184 54.5996 53.7984 52.5296 55.1784 50.4596C57.1884 47.4596 60.2584 45.5096 63.9284 44.8896C65.1784 44.6796 67.5684 44.7796 68.8384 45.0896Z" fill="#664E38"/>
<path d="M68.8384 45.0896C73.8184 46.3196 77.4684 50.0996 78.5484 55.1496C78.6884 55.8096 78.7284 56.4096 78.7184 57.7996C78.7084 59.4696 78.6884 59.6796 78.4084 60.7496C76.7984 66.7996 71.4084 70.8196 65.2884 70.5196C58.1484 70.1796 52.6884 64.2096 53.0084 57.0996C53.1184 54.5996 53.7984 52.5296 55.1784 50.4596C57.1884 47.4596 60.2584 45.5096 63.9284 44.8896C65.1784 44.6796 67.5684 44.7796 68.8384 45.0896Z" fill="#664E38"/>
<path d="M114.378 44.8595C108.808 45.5095 104.218 49.8395 103.208 55.3995C102.988 56.5995 102.998 58.8095 103.218 59.9695C104.228 65.2495 108.278 69.2995 113.558 70.3095C114.718 70.5295 116.928 70.5395 118.128 70.3195C125.138 69.0495 129.768 62.3895 128.538 55.3495C127.598 50.0295 123.278 45.8095 117.878 44.9395C116.968 44.7995 115.268 44.7595 114.378 44.8595ZM118.808 46.4795C122.778 47.5295 125.968 50.7195 127.058 54.7195C127.298 55.6195 127.318 55.8495 127.318 57.6495C127.318 59.4595 127.298 59.6695 127.048 60.5995C126.548 62.4495 125.208 64.7495 123.918 65.9595C122.548 67.2495 120.548 68.3695 118.848 68.7995C114.798 69.8295 110.618 68.6995 107.718 65.8095C104.248 62.3295 103.358 56.9995 105.518 52.5995C106.058 51.4895 107.098 50.0395 107.838 49.3395C109.418 47.8495 111.408 46.8095 113.528 46.3495C114.878 46.0595 117.438 46.1195 118.808 46.4795Z" fill="#664E38"/>
<path d="M118.808 46.4795C122.778 47.5295 125.968 50.7195 127.058 54.7195C127.298 55.6195 127.318 55.8495 127.318 57.6495C127.318 59.4595 127.298 59.6695 127.048 60.5995C126.548 62.4495 125.208 64.7495 123.918 65.9595C122.548 67.2495 120.548 68.3695 118.848 68.7995C114.798 69.8295 110.618 68.6995 107.718 65.8095C104.248 62.3295 103.358 56.9995 105.518 52.5995C106.058 51.4895 107.098 50.0395 107.838 49.3395C109.418 47.8495 111.408 46.8095 113.528 46.3495C114.878 46.0595 117.438 46.1195 118.808 46.4795Z" fill="#664E38"/>
<path d="M164.428 46.3996C159.828 47.0296 156.078 50.3096 154.928 54.6896C154.388 56.7296 154.388 58.4796 154.918 60.5696C155.708 63.6796 157.978 66.4296 160.928 67.8496C164.098 69.3796 167.688 69.3796 170.838 67.8496C174.418 66.1096 176.748 62.7396 177.188 58.6796C177.548 55.3496 176.168 51.7396 173.638 49.3796C171.798 47.6596 169.578 46.6496 166.988 46.3496C165.938 46.2296 165.578 46.2396 164.428 46.3996ZM168.378 47.7796C172.038 48.7296 174.878 51.6096 175.798 55.3096C176.128 56.6496 176.108 58.8296 175.748 60.1796C174.798 63.7696 171.998 66.5596 168.408 67.5196C167.058 67.8796 164.888 67.8996 163.538 67.5696C159.838 66.6496 156.998 63.8496 155.998 60.1496C155.648 58.8296 155.628 56.6396 155.958 55.3096C156.978 51.2196 160.268 48.2096 164.438 47.5496C165.428 47.3996 167.308 47.5096 168.378 47.7796Z" fill="#664E38"/>
<path d="M168.378 47.7796C172.038 48.7296 174.878 51.6096 175.798 55.3096C176.128 56.6496 176.108 58.8296 175.748 60.1796C174.798 63.7696 171.998 66.5596 168.408 67.5196C167.058 67.8796 164.888 67.8996 163.538 67.5696C159.838 66.6496 156.998 63.8496 155.998 60.1496C155.648 58.8296 155.628 56.6396 155.958 55.3096C156.978 51.2196 160.268 48.2096 164.438 47.5496C165.428 47.3996 167.308 47.5096 168.378 47.7796Z" fill="#664E38"/>
<path d="M214.908 47.8596C210.708 48.2296 207.108 51.4796 206.228 55.7096C206.018 56.7396 206.018 58.5596 206.228 59.5896C207.108 63.8496 210.668 67.0396 214.958 67.4396C216.818 67.6096 218.538 67.2896 220.228 66.4496C223.298 64.9296 225.358 61.9496 225.668 58.5696C226.088 54.0196 223.308 49.7596 218.978 48.3096C217.698 47.8896 216.358 47.7396 214.908 47.8596ZM218.128 49.0996C220.638 49.7896 222.758 51.5896 223.868 53.9696C224.498 55.3096 224.618 55.8896 224.628 57.5996C224.628 59.1896 224.548 59.7096 224.098 60.8496C223.708 61.8496 223.098 62.7996 222.338 63.6196C221.498 64.5196 220.668 65.1296 219.558 65.6396C218.198 66.2796 217.648 66.3896 215.878 66.3896C214.118 66.3896 213.558 66.2796 212.208 65.6496C210.238 64.7296 208.798 63.2996 207.888 61.3296C207.248 59.9696 207.138 59.4196 207.138 57.6496C207.138 55.8796 207.248 55.3296 207.888 53.9696C208.558 52.5296 209.658 51.2096 210.908 50.3596C211.868 49.6996 213.388 49.0996 214.528 48.9096C215.148 48.8096 217.528 48.9396 218.128 49.0996Z" fill="#664E38"/>
<path d="M218.128 49.0996C220.638 49.7896 222.758 51.5896 223.868 53.9696C224.498 55.3096 224.618 55.8896 224.628 57.5996C224.628 59.1896 224.548 59.7096 224.098 60.8496C223.708 61.8496 223.098 62.7996 222.338 63.6196C221.498 64.5196 220.668 65.1296 219.558 65.6396C218.198 66.2796 217.648 66.3896 215.878 66.3896C214.118 66.3896 213.558 66.2796 212.208 65.6496C210.238 64.7296 208.798 63.2996 207.888 61.3296C207.248 59.9696 207.138 59.4196 207.138 57.6496C207.138 55.8796 207.248 55.3296 207.888 53.9696C208.558 52.5296 209.658 51.2096 210.908 50.3596C211.868 49.6996 213.388 49.0996 214.528 48.9096C215.148 48.8096 217.528 48.9396 218.128 49.0996Z" fill="#664E38"/>
<path d="M264.288 49.4495C263.518 49.6095 262.858 49.8595 261.928 50.3295C261.178 50.7095 260.858 50.9595 260.028 51.7895C259.208 52.6195 258.938 52.9595 258.558 53.6995C257.778 55.2295 257.628 55.8495 257.628 57.6495C257.628 59.4495 257.768 60.0695 258.558 61.5995C258.938 62.3495 259.188 62.6695 260.018 63.4995C260.848 64.3195 261.188 64.5895 261.928 64.9695C263.458 65.7495 264.078 65.8995 265.878 65.8995C267.688 65.8995 268.308 65.7495 269.828 64.9695C270.568 64.5895 270.908 64.3195 271.728 63.4995C272.548 62.6795 272.818 62.3395 273.198 61.5995C273.978 60.0795 274.128 59.4595 274.128 57.6495C274.128 55.8495 273.978 55.2295 273.198 53.6995C272.818 52.9595 272.548 52.6195 271.728 51.7895C270.898 50.9595 270.578 50.7095 269.828 50.3295C268.378 49.5895 267.748 49.4295 266.128 49.3895C265.358 49.3695 264.528 49.3995 264.288 49.4495ZM267.648 50.4095C269.788 50.8895 271.738 52.5095 272.678 54.5895C273.128 55.5695 273.308 56.4495 273.308 57.6495C273.308 58.8495 273.128 59.7295 272.678 60.7095C271.728 62.7995 269.828 64.3795 267.598 64.9195C266.718 65.1295 265.038 65.1295 264.158 64.9195C261.928 64.3795 260.028 62.7995 259.078 60.7095C258.628 59.7295 258.448 58.8495 258.448 57.6495C258.448 55.9795 258.878 54.6295 259.818 53.3195C261.588 50.8295 264.588 49.7095 267.648 50.4095Z" fill="#664E38"/>
<path d="M267.648 50.4095C269.788 50.8895 271.738 52.5095 272.678 54.5895C273.128 55.5695 273.308 56.4495 273.308 57.6495C273.308 58.8495 273.128 59.7295 272.678 60.7095C271.728 62.7995 269.828 64.3795 267.598 64.9195C266.718 65.1295 265.038 65.1295 264.158 64.9195C261.928 64.3795 260.028 62.7995 259.078 60.7095C258.628 59.7295 258.448 58.8495 258.448 57.6495C258.448 55.9795 258.878 54.6295 259.818 53.3195C261.588 50.8295 264.588 49.7095 267.648 50.4095Z" fill="#664E38"/>
<path d="M314.428 50.9995C312.048 51.5195 310.238 53.1595 309.398 55.5395C309.158 56.2195 309.128 56.4395 309.128 57.6495C309.128 58.8695 309.158 59.0795 309.408 59.7995C310.138 61.8695 311.618 63.3595 313.668 64.0895C314.468 64.3795 314.618 64.3995 315.878 64.3995C317.078 64.3995 317.308 64.3695 317.988 64.1295C319.518 63.5895 320.708 62.6895 321.538 61.4295C322.878 59.4195 323.038 56.8095 321.968 54.6195C320.628 51.8695 317.438 50.3395 314.428 50.9995ZM317.198 51.6995C319.908 52.2695 321.978 54.8495 321.978 57.6495C321.978 60.9895 319.218 63.7495 315.878 63.7495C312.528 63.7495 309.778 60.9995 309.778 57.6495C309.778 55.8195 310.708 53.9095 312.118 52.8495C313.608 51.7195 315.398 51.3095 317.198 51.6995Z" fill="#664E38"/>
<path d="M317.198 51.6995C319.908 52.2695 321.978 54.8495 321.978 57.6495C321.978 60.9895 319.218 63.7495 315.878 63.7495C312.528 63.7495 309.778 60.9995 309.778 57.6495C309.778 55.8195 310.708 53.9095 312.118 52.8495C313.608 51.7195 315.398 51.3095 317.198 51.6995Z" fill="#664E38"/>
<path d="M364.578 52.4995C362.218 53.1495 360.578 55.2595 360.578 57.6495C360.578 60.6795 363.158 63.1095 366.178 62.9195C370.058 62.6795 372.318 58.6795 370.558 55.1695C370.208 54.4695 369.298 53.4995 368.628 53.0995C367.498 52.4395 365.738 52.1795 364.578 52.4995ZM366.798 52.9995C367.518 53.0895 368.618 53.6895 369.238 54.3195C371.518 56.6395 370.848 60.4695 367.898 61.9195C367.138 62.2995 367.128 62.2995 365.878 62.2995C364.628 62.2995 364.618 62.2995 363.858 61.9195C361.878 60.9495 360.858 58.9595 361.228 56.8095C361.568 54.8395 363.248 53.2195 365.178 52.9695C365.838 52.8895 365.958 52.8895 366.798 52.9995Z" fill="#664E38"/>
<path d="M366.798 52.9995C367.518 53.0895 368.618 53.6895 369.238 54.3195C371.518 56.6395 370.848 60.4695 367.898 61.9195C367.138 62.2995 367.128 62.2995 365.878 62.2995C364.628 62.2995 364.618 62.2995 363.858 61.9195C361.878 60.9495 360.858 58.9595 361.228 56.8095C361.568 54.8395 363.248 53.2195 365.178 52.9695C365.838 52.8895 365.958 52.8895 366.798 52.9995Z" fill="#664E38"/>
<path d="M414.918 53.9795C412.618 54.5695 411.418 57.2395 412.498 59.3895C412.608 59.5995 412.898 59.9895 413.138 60.2495C415.208 62.4695 418.968 61.3895 419.578 58.3995C419.728 57.6895 419.658 56.9595 419.358 56.1795C419.058 55.3695 418.148 54.4595 417.328 54.1595C416.588 53.8795 415.598 53.8095 414.918 53.9795ZM416.938 54.4595C417.508 54.6395 417.708 54.7695 418.238 55.2895C418.758 55.8195 418.888 56.0195 419.068 56.5895C419.188 56.9695 419.278 57.4395 419.278 57.6495C419.278 57.8595 419.188 58.3295 419.068 58.7095C418.888 59.2795 418.758 59.4795 418.238 60.0095C417.708 60.5295 417.508 60.6595 416.938 60.8395C416.558 60.9595 416.088 61.0495 415.878 61.0495C415.668 61.0495 415.198 60.9595 414.818 60.8395C414.248 60.6595 414.048 60.5295 413.518 60.0095C412.998 59.4795 412.868 59.2795 412.688 58.7095C412.568 58.3295 412.478 57.8595 412.478 57.6495C412.478 57.4395 412.568 56.9695 412.688 56.5895C412.868 56.0195 412.998 55.8195 413.518 55.2895C414.028 54.7795 414.258 54.6295 414.788 54.4595C415.618 54.1995 416.098 54.1995 416.938 54.4595Z" fill="#664E38"/>
<path d="M416.938 54.4595C417.508 54.6395 417.708 54.7695 418.238 55.2895C418.758 55.8195 418.888 56.0195 419.068 56.5895C419.188 56.9695 419.278 57.4395 419.278 57.6495C419.278 57.8595 419.188 58.3295 419.068 58.7095C418.888 59.2795 418.758 59.4795 418.238 60.0095C417.708 60.5295 417.508 60.6595 416.938 60.8395C416.558 60.9595 416.088 61.0495 415.878 61.0495C415.668 61.0495 415.198 60.9595 414.818 60.8395C414.248 60.6595 414.048 60.5295 413.518 60.0095C412.998 59.4795 412.868 59.2795 412.688 58.7095C412.568 58.3295 412.478 57.8595 412.478 57.6495C412.478 57.4395 412.568 56.9695 412.688 56.5895C412.868 56.0195 412.998 55.8195 413.518 55.2895C414.028 54.7795 414.258 54.6295 414.788 54.4595C415.618 54.1995 416.098 54.1995 416.938 54.4595Z" fill="#664E38"/>
</svg>
