<svg width="32" height="32" viewBox="0 0 32 32" fill="none" xmlns="http://www.w3.org/2000/svg">
<g clip-path="url(#clip0_72_38)">
<path d="M22.1105 22.9028C22.0923 22.9532 22.0577 22.9968 22.0116 23.0271C21.9655 23.0574 21.9104 23.0729 21.8544 23.0714H21.2954L21.6426 21.425C21.6842 21.5031 21.7216 21.5831 21.7547 21.6647L22.1179 22.7421C22.1372 22.7946 22.1345 22.8521 22.1105 22.9028ZM9.88976 22.9036C9.86557 22.8529 9.86271 22.7953 9.88177 22.7426L10.2409 21.677C10.2751 21.5913 10.314 21.5074 10.3573 21.4255L10.7046 23.0714H10.1456C10.0958 23.0717 10.0469 23.0592 10.0041 23.035C9.96139 23.0108 9.92649 22.9757 9.90325 22.934C9.89809 22.9242 9.89358 22.914 9.88976 22.9036ZM13.6533 21.5901C13.7173 21.6626 13.801 21.7169 13.8953 21.7471L14.6914 23.0714H14.0129L13.6533 21.5901ZM14.4909 21.6828L15.2044 21.4899C15.4241 21.6741 15.707 21.7757 16 21.7757C16.2929 21.7757 16.5758 21.6741 16.7955 21.4899L17.509 21.6828L16.6741 23.0714H15.3259L14.4909 21.6828ZM18.1046 21.7471C18.1602 21.7291 18.2123 21.7028 18.2591 21.6692C18.2912 21.6459 18.3206 21.6194 18.3467 21.5901L17.9871 23.0714H17.3085L18.1046 21.7471ZM17.2033 18.1634C16.8631 18.4259 16.4382 18.5692 16 18.5692C15.5618 18.5692 15.1369 18.4259 14.7966 18.1634C14.5983 18.0091 14.4221 17.8625 14.2541 17.7134C14.2569 17.7395 14.2624 17.7657 14.2651 17.7892C14.2946 18.0203 14.3102 18.2526 14.3119 18.4854L16 19.8619L17.688 18.4854C17.6897 18.2526 17.7053 18.0203 17.7348 17.7892C17.7376 17.763 17.7431 17.7395 17.7458 17.7134C17.5779 17.8625 17.4016 18.0091 17.2033 18.1634ZM11.4095 20.3513C10.9744 20.6523 10.9084 20.7045 10.8863 20.7255C10.8533 20.7569 10.823 20.7935 10.7927 20.825L11.2663 23.0703H12.0704L11.4095 20.3513ZM14.9178 20.694L14.0724 20.2231V21.2515L14.9178 21.0238C14.9058 20.9696 14.8993 20.9144 14.8985 20.859C14.8995 20.8035 14.9059 20.7484 14.9178 20.694ZM14.9178 20.694L14.0724 20.2231V21.2515L14.9178 21.0238C14.9058 20.9696 14.8993 20.9144 14.8985 20.859C14.8995 20.8035 14.9059 20.7484 14.9178 20.694ZM12.701 19.9509C12.4331 19.9672 12.1689 20.0191 11.9162 20.1053L12.6349 23.0703H13.4473L12.7038 20.0032C12.7001 19.986 12.6992 19.9683 12.701 19.9509ZM14.9178 20.694L14.0724 20.2231V21.2515L14.9178 21.0238C14.9058 20.9696 14.8993 20.9144 14.8985 20.859C14.8995 20.8035 14.9059 20.7484 14.9178 20.694ZM14.9178 20.694L14.0724 20.2231V21.2515L14.9178 21.0238C14.9058 20.9696 14.8993 20.9144 14.8985 20.859C14.8995 20.8035 14.9059 20.7484 14.9178 20.694ZM16 20.4665C15.7026 20.4665 15.4492 20.647 15.4492 20.859C15.4492 21.0736 15.7026 21.2515 16 21.2515C16.2974 21.2515 16.5507 21.0736 16.5507 20.859C16.5507 20.647 16.2974 20.4665 16 20.4665ZM19.2989 19.9509C19.3008 19.9683 19.2998 19.986 19.2962 20.0032L18.5527 23.0703H19.365L20.0837 20.1053C19.831 20.0191 19.5668 19.9672 19.2989 19.9509ZM21.1136 20.7255C21.0916 20.7045 21.0255 20.6523 20.5904 20.3513L19.9295 23.0703H20.7336L21.2072 20.825C21.177 20.7935 21.1467 20.7569 21.1136 20.7255ZM16 20.4665C15.7026 20.4665 15.4492 20.647 15.4492 20.859C15.4492 21.0736 15.7026 21.2515 16 21.2515C16.2974 21.2515 16.5507 21.0736 16.5507 20.859C16.5507 20.647 16.2974 20.4665 16 20.4665ZM16 20.4665C15.7026 20.4665 15.4492 20.647 15.4492 20.859C15.4492 21.0736 15.7026 21.2515 16 21.2515C16.2974 21.2515 16.5507 21.0736 16.5507 20.859C16.5507 20.647 16.2974 20.4665 16 20.4665ZM17.0822 20.694C17.094 20.7484 17.1005 20.8035 17.1015 20.859C17.1006 20.9144 17.0942 20.9696 17.0822 21.0238L17.9276 21.2515V20.2231L17.0822 20.694ZM16 20.4665C15.7026 20.4665 15.4492 20.647 15.4492 20.859C15.4492 21.0736 15.7026 21.2515 16 21.2515C16.2974 21.2515 16.5507 21.0736 16.5507 20.859C16.5507 20.647 16.2974 20.4665 16 20.4665ZM16 20.4665C15.7026 20.4665 15.4492 20.647 15.4492 20.859C15.4492 21.0736 15.7026 21.2515 16 21.2515C16.2974 21.2515 16.5507 21.0736 16.5507 20.859C16.5507 20.647 16.2974 20.4665 16 20.4665ZM14.9178 20.694L14.0724 20.2231V21.2515L14.9178 21.0238C14.9058 20.9696 14.8993 20.9144 14.8985 20.859C14.8995 20.8035 14.9059 20.7484 14.9178 20.694ZM17.9138 18.9931L16.5755 20.0817C16.6597 20.1249 16.7375 20.1787 16.8068 20.2414L17.7376 19.7232C17.7635 19.7074 17.7926 19.6967 17.8229 19.6918C17.9025 19.6772 17.9845 19.6796 18.063 19.6986C18.1416 19.7176 18.2147 19.7528 18.2773 19.8017C18.3725 19.8756 18.4385 19.978 18.4646 20.0922L18.6848 19.7258L17.9138 18.9931ZM19.2521 13.534C19.2337 13.5417 19.2142 13.547 19.1943 13.5497C19.1797 13.5573 19.1659 13.566 19.153 13.5759C19.0338 14.0718 18.9811 14.58 18.996 15.0885C19.0317 15.1335 19.0723 15.1747 19.1172 15.2115C19.1833 15.0964 19.3044 14.73 19.3044 13.9109C19.3122 13.7832 19.2945 13.6554 19.2521 13.534ZM19.0621 8.47804C18.8473 8.35504 18.4095 8.58272 17.9441 8.8261C17.3741 9.12443 16.727 9.46202 16 9.46202C12.8277 9.46202 12.4201 10.5115 12.4201 11.4247C12.4189 11.5439 12.4281 11.663 12.4477 11.7807C12.5008 12.1596 12.6378 12.5235 12.8497 12.8484L14.1027 11.3279C14.1603 11.2504 14.234 11.1847 14.3192 11.135C14.4044 11.0853 14.4994 11.0526 14.5983 11.0389C14.6972 11.0252 14.798 11.0307 14.8946 11.0553C14.9912 11.0797 15.0815 11.1227 15.1601 11.1814C15.4005 11.3568 15.695 11.4521 15.9981 11.4525C16.3012 11.453 16.5961 11.3587 16.8371 11.184C16.9156 11.1247 17.006 11.0812 17.1027 11.0563C17.1995 11.0314 17.3006 11.0255 17.3998 11.039C17.4991 11.0524 17.5944 11.085 17.6799 11.1347C17.7654 11.1844 17.8394 11.2502 17.8973 11.3279L19.0786 12.762L19.2053 12.7646C19.45 12.3563 19.5791 11.8946 19.5798 11.4247C19.5798 9.22911 19.2989 8.60889 19.0621 8.47804ZM12.847 13.5785C12.8306 13.5657 12.8131 13.5544 12.7947 13.5445C12.7788 13.542 12.7632 13.5385 12.7478 13.534C12.7052 13.6553 12.6874 13.7832 12.6955 13.9109C12.6955 14.73 12.8167 15.0964 12.8828 15.2115C12.9276 15.1747 12.9682 15.1335 13.0039 15.0885C13.0189 14.5809 12.9662 14.0735 12.847 13.5785ZM17.465 11.6524C17.4505 11.6299 17.4314 11.6105 17.4087 11.5955C17.386 11.5804 17.3602 11.5699 17.3331 11.5647C17.3059 11.5596 17.2779 11.5598 17.2508 11.5654C17.2238 11.571 17.1982 11.582 17.1758 11.5975C16.8389 11.8429 16.4263 11.9762 16.0018 11.9767C15.5773 11.9772 15.1644 11.8448 14.8269 11.6001C14.8046 11.5841 14.779 11.5727 14.7517 11.5667C14.7245 11.5606 14.6962 11.56 14.6688 11.5649C14.6413 11.5699 14.6152 11.5802 14.5922 11.5953C14.5691 11.6103 14.5497 11.6298 14.535 11.6524L13.3068 13.1441C13.3096 13.1546 13.3123 13.1676 13.3151 13.1807C13.3179 13.1932 13.3215 13.2055 13.3261 13.2174V13.2252C13.5412 13.9836 13.6102 14.7727 13.5299 15.5544C13.5244 15.6067 13.5216 15.6642 13.5216 15.7218C13.5216 16.2296 14.0972 16.9518 15.1436 17.7552C15.3855 17.9422 15.6877 18.0445 15.9995 18.045C16.3113 18.0455 16.6138 17.9441 16.8564 17.7578C17.9028 16.9518 18.4783 16.2296 18.4783 15.7218C18.4783 15.6642 18.4756 15.6067 18.4701 15.5491C18.3934 14.7927 18.4558 14.0293 18.6546 13.2933C18.6573 13.2855 18.6601 13.2698 18.6656 13.254L18.6793 13.2069C18.6848 13.186 18.6876 13.165 18.6931 13.1415L17.465 11.6524ZM15.7246 15.4811H16.2753C16.3484 15.4811 16.4184 15.5087 16.4701 15.5578C16.5217 15.6068 16.5507 15.6733 16.5507 15.7428C16.5507 15.8122 16.5217 15.8787 16.4701 15.9278C16.4184 15.9769 16.3484 16.0045 16.2753 16.0045H15.7246C15.6516 16.0045 15.5815 15.9769 15.5299 15.9278C15.4782 15.8787 15.4492 15.8122 15.4492 15.7428C15.4492 15.6733 15.4782 15.6068 15.5299 15.5578C15.5815 15.5087 15.6516 15.4811 15.7246 15.4811ZM14.8985 14.1725V14.4343C14.8985 14.5037 14.8695 14.5702 14.8178 14.6193C14.7662 14.6684 14.6962 14.696 14.6231 14.696C14.5501 14.696 14.48 14.6684 14.4284 14.6193C14.3768 14.5702 14.3477 14.5037 14.3477 14.4343V14.1725H14.0724C13.9993 14.1725 13.9293 14.145 13.8777 14.0959C13.826 14.0469 13.797 13.9803 13.797 13.9109C13.797 13.8415 13.826 13.7749 13.8777 13.7258C13.9293 13.6767 13.9993 13.6492 14.0724 13.6492H15.1739C15.2469 13.6492 15.3169 13.6767 15.3686 13.7258C15.4202 13.7749 15.4492 13.8415 15.4492 13.9109C15.4492 13.9803 15.4202 14.0469 15.3686 14.0959C15.3169 14.145 15.2469 14.1725 15.1739 14.1725H14.8985ZM16.5507 17.0513H15.4492C15.3762 17.0513 15.3062 17.0237 15.2545 16.9746C15.2029 16.9255 15.1739 16.859 15.1739 16.7896C15.1739 16.7201 15.2029 16.6536 15.2545 16.6045C15.3062 16.5555 15.3762 16.5278 15.4492 16.5278H16.5507C16.6238 16.5278 16.6938 16.5555 16.7454 16.6045C16.7971 16.6536 16.8261 16.7201 16.8261 16.7896C16.8261 16.859 16.7971 16.9255 16.7454 16.9746C16.6938 17.0237 16.6238 17.0513 16.5507 17.0513ZM17.9276 14.1725H17.6522V14.4343C17.6522 14.5037 17.6232 14.5702 17.5716 14.6193C17.5199 14.6684 17.4499 14.696 17.3768 14.696C17.3038 14.696 17.2338 14.6684 17.1821 14.6193C17.1305 14.5702 17.1015 14.5037 17.1015 14.4343V14.1725H16.8261C16.7531 14.1725 16.683 14.145 16.6314 14.0959C16.5797 14.0469 16.5507 13.9803 16.5507 13.9109C16.5507 13.8415 16.5797 13.7749 16.6314 13.7258C16.683 13.6767 16.7531 13.6492 16.8261 13.6492H17.9276C18.0006 13.6492 18.0707 13.6767 18.1223 13.7258C18.1739 13.7749 18.2029 13.8415 18.2029 13.9109C18.2029 13.9803 18.1739 14.0469 18.1223 14.0959C18.0707 14.145 18.0006 14.1725 17.9276 14.1725ZM14.0861 18.9931L13.3151 19.7258L13.5354 20.0922C13.5664 19.9591 13.6508 19.8428 13.7706 19.7681C13.8904 19.6933 14.0363 19.666 14.177 19.6918C14.2074 19.6967 14.2364 19.7074 14.2624 19.7232L15.1931 20.2414C15.2625 20.1787 15.3402 20.1249 15.4244 20.0817L14.0861 18.9931Z" fill="white"/>
<path d="M2.44676 11.5437L2.16188 12.3892L0.0596924 11.7493L0.331751 10.9418C0.401952 10.7337 0.501773 10.5986 0.63133 10.5363C0.76112 10.4735 0.913766 10.4687 1.08927 10.5222C1.1702 10.5468 1.2383 10.5796 1.29358 10.6204C1.34804 10.6609 1.3892 10.7075 1.41695 10.7599C1.44378 10.8129 1.45485 10.8711 1.45031 10.9345C1.47538 10.8949 1.50791 10.8585 1.54779 10.8249C1.58698 10.7913 1.6335 10.7655 1.6875 10.7475C1.74149 10.7295 1.80096 10.7205 1.86591 10.7202C1.93005 10.7198 1.9999 10.7309 2.07547 10.754C2.21517 10.7966 2.32001 10.8536 2.39009 10.9254C2.45947 10.9968 2.49761 11.0845 2.50472 11.1882C2.51137 11.291 2.49201 11.4095 2.44676 11.5437ZM1.43491 11.6545L1.88026 11.7899L2.00352 11.4244C2.01693 11.3845 2.01961 11.3481 2.01133 11.3151C2.00387 11.2824 1.98614 11.2538 1.95816 11.2295C1.92947 11.2047 1.88994 11.1847 1.83956 11.1692C1.79373 11.1553 1.75222 11.1511 1.71502 11.1566C1.67782 11.1621 1.64598 11.1755 1.61928 11.1971C1.59187 11.2184 1.57147 11.2489 1.55806 11.2887L1.43491 11.6545ZM0.656285 11.4174L1.06385 11.5415L1.17906 11.1999C1.19469 11.1534 1.18746 11.1112 1.15737 11.0731C1.12799 11.0355 1.08391 11.0077 1.02513 10.9897C0.948051 10.9663 0.889511 10.9652 0.849396 10.9866C0.810097 11.0083 0.783859 11.0387 0.770682 11.078L0.656285 11.4174Z" fill="white"/>
<path d="M2.9986 10.2589L2.76211 10.7085L1.08789 9.19961L1.37476 8.65381L3.64988 9.02008L3.41176 9.4729L3.00209 9.39843L2.68876 9.99435L2.9986 10.2589ZM1.62443 9.11716L2.33005 9.69752L2.53693 9.30401L1.62443 9.11716Z" fill="white"/>
<path d="M4.12903 8.34667L3.83692 8.74929L2.0195 7.55861L2.54636 6.83239C2.59919 6.7597 2.65738 6.69885 2.72116 6.64987C2.78379 6.6011 2.8541 6.56864 2.93223 6.55223C3.01036 6.53583 3.09724 6.54015 3.1931 6.56497C3.28825 6.58947 3.3946 6.64011 3.51215 6.71703C3.59203 6.76933 3.65523 6.82097 3.702 6.87206C3.74806 6.9226 3.78164 6.97236 3.80263 7.02123C3.82409 7.06955 3.8361 7.11665 3.83867 7.16275C3.84123 7.20885 3.83995 7.25429 3.8347 7.29895L4.7739 7.45776L4.47701 7.86703L3.64299 7.70212C3.63156 7.71775 3.6185 7.73515 3.60381 7.75421C3.58841 7.77283 3.57407 7.79111 3.56089 7.8093C3.54725 7.82813 3.53337 7.84719 3.51926 7.86669C3.50515 7.88609 3.49198 7.90437 3.47961 7.92122L4.12903 8.34667ZM2.69178 7.40501L3.14505 7.70202L3.32732 7.45089C3.34784 7.42263 3.36184 7.39525 3.3693 7.36877C3.37793 7.34207 3.37874 7.3148 3.37163 7.28709C3.36347 7.2595 3.34773 7.23212 3.32464 7.20486C3.30038 7.17794 3.26656 7.15012 3.22295 7.12164C3.17875 7.09271 3.13934 7.07243 3.10494 7.0609C3.07065 7.05049 3.04045 7.04783 3.01433 7.05292C2.98716 7.05825 2.96197 7.06944 2.93876 7.08662C2.91602 7.10313 2.89445 7.12563 2.87393 7.15389L2.69178 7.40501Z" fill="white"/>
<path d="M5.65503 6.54499L5.02299 7.19873L3.3974 5.77954L4.00099 5.15517C4.15667 4.99415 4.30698 4.91125 4.45193 4.90659C4.59747 4.90128 4.7381 4.95791 4.87384 5.07638C4.93646 5.13101 4.98381 5.18786 5.01599 5.24693C5.04759 5.30555 5.06439 5.36418 5.06637 5.42281C5.0673 5.48154 5.05167 5.53873 5.01949 5.59458C5.05972 5.56865 5.10532 5.54848 5.15639 5.53407C5.20677 5.51911 5.26041 5.51423 5.31744 5.51944C5.37434 5.52465 5.43242 5.54016 5.49142 5.56576C5.54984 5.59093 5.60827 5.62894 5.66669 5.68002C5.77467 5.77434 5.84464 5.86798 5.87659 5.96107C5.90796 6.05361 5.904 6.14836 5.86458 6.24544C5.82517 6.34141 5.75532 6.44126 5.65503 6.54499ZM4.68761 6.24189L5.03208 6.54256L5.30531 6.25985C5.33516 6.22904 5.35359 6.19702 5.36058 6.16387C5.36816 6.13118 5.36478 6.09816 5.3502 6.0648C5.33504 6.03089 5.30799 5.99698 5.26916 5.96295C5.23371 5.93204 5.19791 5.91164 5.16176 5.90178C5.12561 5.89192 5.09062 5.89147 5.05704 5.90034C5.02275 5.90876 4.9908 5.92838 4.96095 5.95919L4.68761 6.24189ZM4.08554 5.71626L4.40074 5.99144L4.65612 5.72724C4.69087 5.69133 4.70288 5.65011 4.69239 5.60367C4.68236 5.55768 4.65472 5.5149 4.60913 5.47522C4.54954 5.42314 4.49683 5.39887 4.45112 5.4023C4.40587 5.4063 4.36867 5.42347 4.33929 5.45372L4.08554 5.71626Z" fill="white"/>
<path d="M6.87619 5.49012C6.83969 5.51871 6.79351 5.54863 6.73731 5.57977C6.6811 5.61202 6.61976 5.63407 6.55306 5.64593C6.48635 5.65779 6.41592 5.65081 6.34164 5.6251C6.26794 5.59895 6.19389 5.54298 6.11937 5.45732L5.36372 4.5878C5.29783 4.512 5.25562 4.43897 5.23708 4.3686C5.21795 4.29756 5.21574 4.23272 5.23008 4.17399C5.24454 4.11525 5.27078 4.06051 5.30891 4.00986C5.34646 3.95866 5.38821 3.91499 5.4338 3.8792C5.55613 3.78311 5.66423 3.70178 5.75811 3.63506C5.8514 3.56779 5.93407 3.50927 6.00626 3.45941C6.07961 3.40976 6.14549 3.36543 6.20403 3.32642L6.48052 3.64437L5.85664 4.1341C5.81525 4.16656 5.79099 4.20092 5.78399 4.23716C5.777 4.27329 5.79052 4.31108 5.82469 4.35042L5.98014 4.52918L6.64087 4.0461L6.89893 4.343L6.27342 4.86663L6.42117 5.03663C6.44927 5.06888 6.47621 5.08971 6.50198 5.09914C6.52892 5.10855 6.55516 5.11066 6.58081 5.10545C6.60705 5.09969 6.63095 5.08838 6.65253 5.07132L7.28749 4.57295L7.56234 4.88913C7.50112 4.94908 7.43162 5.01446 7.35395 5.0854C7.27687 5.15577 7.19676 5.22559 7.1135 5.29496C7.03035 5.36323 6.95129 5.42828 6.87619 5.49012Z" fill="white"/>
<path d="M8.26705 4.51282L7.81331 4.77125L7.25497 2.64357L7.80562 2.32983L9.51691 3.80088L9.06014 4.0611L8.75671 3.78892L8.15546 4.13136L8.26705 4.51282ZM7.75407 2.84815L8.02088 3.69793L8.41784 3.47175L7.75407 2.84815Z" fill="white"/>
<path d="M10.3018 3.47782L9.82778 3.66811L8.9687 1.73569L9.8237 1.39247C9.90929 1.35811 9.99291 1.33651 10.0742 1.32775C10.1545 1.31867 10.2323 1.32708 10.3074 1.35325C10.3825 1.37928 10.4534 1.42727 10.5202 1.4972C10.5867 1.56646 10.6477 1.66355 10.7032 1.78845C10.741 1.87333 10.7651 1.94924 10.7757 2.01607C10.786 2.08223 10.7861 2.1413 10.7762 2.19327C10.767 2.24492 10.7504 2.29091 10.7265 2.33103C10.7026 2.37125 10.6758 2.40883 10.6462 2.44396L11.3483 3.05758L10.8666 3.25096L10.2565 2.686C10.238 2.69342 10.2172 2.7014 10.194 2.70982C10.1704 2.71758 10.148 2.72577 10.1266 2.73442C10.1044 2.74329 10.0819 2.75237 10.059 2.76158C10.0362 2.77077 10.0147 2.77942 9.99477 2.7874L10.3018 3.47782ZM9.62231 1.94958L9.83665 2.43166L10.1324 2.31286C10.1656 2.29955 10.1929 2.28359 10.2142 2.26509C10.2366 2.24702 10.2527 2.22442 10.2624 2.19738C10.271 2.1699 10.2734 2.13886 10.2693 2.10406C10.2642 2.06893 10.2512 2.02826 10.2306 1.98194C10.2097 1.93495 10.1879 1.89771 10.1654 1.87045C10.1424 1.84418 10.1184 1.82646 10.0936 1.81748C10.0677 1.80805 10.04 1.80462 10.0108 1.80728C9.98218 1.8096 9.95128 1.81748 9.91804 1.83077L9.62231 1.94958Z" fill="white"/>
<path d="M12.223 2.81028L11.7309 2.95314L11.0862 0.946805L11.5784 0.803955L12.223 2.81028Z" fill="white"/>
<path d="M13.0875 2.6429L12.5666 2.73012L12.8455 0.553344L13.4778 0.44751L14.5226 2.40275L13.9981 2.49053L13.8171 2.13334L13.1268 2.24893L13.0875 2.6429ZM13.2346 0.914072L13.1641 1.79833L13.62 1.72196L13.2346 0.914072Z" fill="white"/>
<path d="M16.9681 2.39206L16.3266 2.36579L15.7502 0.242432L16.2823 0.264263L16.6738 1.85047L17.2085 0.302165L17.7345 0.323664L16.9681 2.39206Z" fill="white"/>
<path d="M18.246 2.52704L17.7262 2.43328L18.7981 0.491455L19.4289 0.605269L19.6775 2.78537L19.1543 2.69095L19.1181 2.29597L18.4295 2.17175L18.246 2.52704ZM19.0277 0.95968L18.6323 1.76292L19.0871 1.84493L19.0277 0.95968Z" fill="white"/>
<path d="M20.4912 3.04372L20.0071 2.88502L20.7267 0.901855L21.112 1.02808L21.4756 2.48994L21.911 1.28996L22.3975 1.44932L21.6779 3.43248L21.2892 3.30515L20.9255 1.84683L20.4912 3.04372Z" fill="white"/>
<path d="M22.6296 3.91792C22.5084 3.85707 22.4221 3.78404 22.3706 3.69871C22.3198 3.61382 22.2963 3.51841 22.2999 3.41256C22.3035 3.30662 22.3284 3.19259 22.3746 3.07012C22.4206 2.94678 22.481 2.81767 22.5557 2.68302C22.6366 2.53751 22.7194 2.41151 22.804 2.3049C22.8894 2.19873 22.981 2.11772 23.0791 2.06186C23.1776 2.00534 23.288 1.97974 23.4101 1.98506C23.5319 1.98939 23.67 2.03028 23.8245 2.10786C23.9209 2.15628 24.0042 2.20283 24.0746 2.24749C24.1449 2.29226 24.2093 2.33792 24.2676 2.38446C24.3253 2.43068 24.3839 2.47944 24.4434 2.53087L24.2575 2.86522C24.2211 2.84095 24.1747 2.81113 24.1181 2.77589C24.0612 2.74131 23.9966 2.7033 23.9245 2.66197C23.8524 2.62051 23.7752 2.57929 23.693 2.53795C23.5873 2.48498 23.4988 2.4616 23.4273 2.46791C23.3548 2.47457 23.2873 2.51435 23.225 2.58727C23.162 2.65986 23.0907 2.76791 23.0108 2.91142C22.949 3.02258 22.9036 3.11567 22.8747 3.1907C22.8449 3.26539 22.8306 3.3279 22.8315 3.37832C22.8321 3.42941 22.8474 3.47197 22.8775 3.5061C22.9068 3.53979 22.9477 3.56982 23.0002 3.59609C23.0681 3.63022 23.1332 3.6577 23.195 3.67842C23.2566 3.69816 23.3063 3.71234 23.3441 3.72088L23.508 3.42587L23.2008 3.27171L23.3912 2.92916C23.4321 2.94368 23.4793 2.96219 23.533 2.98479C23.5866 3.00739 23.6428 3.03178 23.7017 3.05794C23.7599 3.08376 23.8127 3.10847 23.8602 3.13229C23.9212 3.16289 23.9746 3.19059 24.0206 3.21541C24.0671 3.23957 24.1084 3.26296 24.1448 3.28556L23.5463 4.36254L23.204 4.19076L23.213 4.03506C23.1505 4.03982 23.0651 4.03527 22.9568 4.02143C22.8491 4.00791 22.7401 3.97344 22.6296 3.91792Z" fill="white"/>
<path d="M24.6136 5.11076C24.515 5.04161 24.4287 4.9698 24.355 4.89543C24.281 4.81997 24.2275 4.73884 24.1943 4.65218C24.161 4.5654 24.1549 4.47264 24.1757 4.37369C24.1967 4.27483 24.2519 4.16777 24.3414 4.05252L25.2242 2.91504L25.6383 3.20528L24.7569 4.34099C24.7179 4.39131 24.6982 4.43985 24.6976 4.48672C24.6965 4.53427 24.7125 4.58047 24.7454 4.62536C24.7778 4.6708 24.825 4.71524 24.887 4.75857C24.9476 4.80113 25.0056 4.83038 25.0608 4.84645C25.1163 4.86352 25.1674 4.8644 25.2143 4.84889C25.2613 4.83449 25.3043 4.80223 25.3433 4.75192L26.2246 3.61632L26.6387 3.90656L25.756 5.04405C25.6665 5.15931 25.5756 5.24131 25.483 5.28996C25.3898 5.33818 25.2943 5.35978 25.1967 5.3548C25.0997 5.35025 25.003 5.32598 24.9066 5.28198C24.8106 5.23743 24.713 5.18036 24.6136 5.11076Z" fill="white"/>
<path d="M25.852 6.09023L25.4792 5.73349L27.5191 4.7085L27.9715 5.14137L26.8789 7.07278L26.5036 6.71372L26.7088 6.36851L26.2149 5.89585L25.852 6.09023ZM27.4297 5.21795L26.6255 5.66778L26.9517 5.97996L27.4297 5.21795Z" fill="white"/>
<path d="M27.3967 7.71942L27.0888 7.32756L28.8574 6.07227L29.4128 6.77898C29.4685 6.8498 29.5104 6.92172 29.5388 6.99476C29.5673 7.06668 29.5772 7.14048 29.5686 7.21607C29.56 7.29165 29.5279 7.36857 29.4724 7.44692C29.4176 7.52482 29.3331 7.60428 29.2188 7.6854C29.1411 7.74059 29.0693 7.78105 29.0035 7.80686C28.9383 7.83213 28.878 7.84642 28.8226 7.84964C28.7676 7.85352 28.7168 7.8492 28.6699 7.83678C28.6231 7.82437 28.5782 7.80863 28.5353 7.78969L28.0766 8.58451L27.7636 8.18632L28.1948 7.48802C28.1828 7.47273 28.1697 7.45544 28.1555 7.43616C28.142 7.41632 28.1282 7.3976 28.1142 7.37986C28.0999 7.36157 28.0852 7.34296 28.0704 7.32401C28.0555 7.30506 28.0416 7.28744 28.0286 7.27093L27.3967 7.71942ZM28.7954 6.72668L28.3542 7.03975L28.5463 7.28422C28.5678 7.31171 28.5907 7.33309 28.6147 7.34839C28.6386 7.36479 28.6655 7.37421 28.6954 7.37665C28.7255 7.37809 28.7579 7.37277 28.7923 7.36059C28.827 7.3474 28.8654 7.32578 28.9079 7.29564C28.9509 7.26505 28.9837 7.23612 29.0062 7.20875C29.0275 7.18127 29.0399 7.15489 29.0432 7.12974C29.0465 7.10359 29.0434 7.07721 29.0337 7.05094C29.0245 7.02523 29.0091 6.99852 28.9875 6.97104L28.7954 6.72668Z" fill="white"/>
<path d="M28.7088 9.68631L28.2529 8.88926L30.1922 7.88721L30.6482 8.68425C30.7229 8.81479 30.7595 8.9346 30.758 9.04364C30.7573 9.15236 30.7275 9.25442 30.669 9.34973C30.6107 9.44405 30.5276 9.53159 30.4198 9.61249C30.313 9.69372 30.1898 9.77029 30.0503 9.84244C29.8279 9.95735 29.6317 10.0276 29.4619 10.0528C29.2925 10.0788 29.1459 10.0609 29.0221 9.99914C28.8975 9.93776 28.7931 9.83351 28.7088 9.68631ZM30.0324 8.52643L28.9032 9.10992L29.0893 9.43507C29.1281 9.50267 29.1787 9.54578 29.2414 9.56462C29.3038 9.58268 29.3818 9.5788 29.4756 9.55288C29.5693 9.52694 29.6795 9.48128 29.8063 9.41579C29.9267 9.35361 30.0206 9.29676 30.088 9.24556C30.1565 9.19458 30.2033 9.14737 30.2287 9.10392C30.2547 9.06015 30.2657 9.01804 30.2618 8.97759C30.2575 8.93648 30.243 8.89447 30.2185 8.8517L30.0324 8.52643Z" fill="white"/>
<path d="M29.3468 11.0315L29.1698 10.5577L31.4748 10.4575L31.6897 11.0326L29.8344 12.3364L29.6562 11.8594L29.9967 11.6305L29.7622 11.0028L29.3468 11.0315ZM31.1652 10.8821L30.236 10.9629L30.3909 11.3775L31.1652 10.8821Z" fill="white"/>
<path d="M0.923002 21.0396L0.638 20.1941L2.74018 19.5542L3.01236 20.3616C3.08256 20.5698 3.08396 20.7349 3.01644 20.857C2.94927 20.9798 2.82787 21.068 2.65237 21.1214C2.57144 21.1461 2.49599 21.157 2.42614 21.1543C2.35699 21.1513 2.29507 21.1362 2.24038 21.1088C2.18627 21.0806 2.14161 21.0393 2.10651 20.9853C2.11024 21.0313 2.10616 21.079 2.09415 21.1282C2.08283 21.1772 2.06079 21.2239 2.02779 21.2683C1.99479 21.3127 1.95199 21.353 1.89929 21.3891C1.84739 21.4248 1.78361 21.4542 1.70804 21.4772C1.56834 21.5198 1.44811 21.5311 1.34712 21.5115C1.24695 21.4916 1.16229 21.4414 1.09314 21.3608C1.02492 21.2808 0.968248 21.1737 0.923002 21.0396ZM1.67889 20.3907L1.23354 20.5263L1.3568 20.8919C1.37021 20.9318 1.39039 20.9629 1.41721 20.9852C1.44333 21.0077 1.47516 21.0211 1.51283 21.0256C1.55131 21.0299 1.59574 21.0244 1.64612 21.0089C1.69195 20.995 1.72833 20.9756 1.75527 20.9506C1.78221 20.9255 1.79993 20.897 1.80844 20.8647C1.81777 20.8324 1.81567 20.7962 1.80215 20.7563L1.67889 20.3907ZM2.45751 20.1538L2.04995 20.2778L2.16505 20.6194C2.18067 20.6659 2.21239 20.6962 2.26009 20.7106C2.30708 20.725 2.35991 20.7234 2.4188 20.7054C2.49588 20.682 2.54416 20.6504 2.56363 20.6109C2.5824 20.5715 2.58509 20.5323 2.57191 20.4932L2.45751 20.1538Z" fill="white"/>
<path d="M1.56715 22.5401L1.33066 22.0904L3.60578 21.7241L3.89265 22.27L2.21844 23.7789L1.98043 23.3261L2.2891 23.0595L1.97576 22.4635L1.56715 22.5401ZM3.35285 22.1814L2.44093 22.3692L2.6478 22.7627L3.35285 22.1814Z" fill="white"/>
<path d="M2.81165 24.6357L2.51953 24.2331L4.33683 23.0425L4.86368 23.7686C4.91651 23.8412 4.95558 23.9146 4.981 23.9887C5.00665 24.0616 5.01365 24.1357 5.0021 24.2109C4.99044 24.286 4.95534 24.3618 4.89669 24.4382C4.83885 24.5141 4.75115 24.5904 4.63372 24.6673C4.55384 24.7197 4.48061 24.7575 4.41379 24.781C4.34767 24.8038 4.28692 24.816 4.23129 24.8172C4.17613 24.8192 4.12552 24.813 4.07923 24.7989C4.03293 24.7848 3.98874 24.7675 3.94664 24.747L3.45652 25.5247L3.15962 25.1155L3.61837 24.4332C3.60695 24.4176 3.59459 24.3998 3.58117 24.38C3.56835 24.3597 3.5554 24.3404 3.54211 24.3222C3.52847 24.3034 3.51459 24.2843 3.50048 24.2649C3.48637 24.2455 3.47319 24.2273 3.46095 24.2103L2.81165 24.6357ZM4.2489 23.6941L3.79551 23.991L3.97778 24.2422C3.9983 24.2705 4.02022 24.2926 4.04355 24.3088C4.06675 24.326 4.09322 24.3364 4.12308 24.3399C4.15316 24.3425 4.18558 24.3383 4.22056 24.3274C4.25566 24.3155 4.29508 24.2953 4.33869 24.2667C4.38289 24.2377 4.41682 24.21 4.44026 24.1833C4.46277 24.1567 4.47606 24.1307 4.48038 24.1058C4.48481 24.0798 4.48271 24.0534 4.47408 24.0266C4.46592 24.0006 4.45157 23.9735 4.43105 23.9452L4.2489 23.6941Z" fill="white"/>
<path d="M4.47665 26.6029L3.8446 25.9493L5.47019 24.53L6.07378 25.1543C6.22946 25.3154 6.30362 25.4646 6.29628 25.6024C6.28951 25.7407 6.21826 25.869 6.08252 25.9876C6.0199 26.0423 5.95635 26.0822 5.89175 26.1077C5.82772 26.1326 5.76475 26.1436 5.70306 26.1405C5.64138 26.1364 5.58272 26.1168 5.52698 26.0816C5.55065 26.122 5.56803 26.1669 5.57887 26.2164C5.5903 26.2654 5.59088 26.3166 5.5805 26.3701C5.57013 26.4237 5.54902 26.4772 5.51718 26.5308C5.48593 26.584 5.44104 26.6361 5.3825 26.6872C5.27451 26.7816 5.17038 26.8398 5.07009 26.8622C4.97039 26.8841 4.87138 26.8723 4.77296 26.8269C4.6757 26.7814 4.57693 26.7068 4.47665 26.6029ZM4.87628 25.7127L4.53192 26.0133L4.80514 26.296C4.835 26.3268 4.86695 26.347 4.90123 26.3566C4.93482 26.3665 4.96969 26.3661 5.00595 26.3551C5.0428 26.3437 5.0807 26.3209 5.11953 26.2868C5.15498 26.2559 5.17936 26.2238 5.19277 26.1902C5.20618 26.1568 5.20967 26.1238 5.20314 26.0913C5.1972 26.0582 5.17936 26.0262 5.14962 25.9953L4.87628 25.7127ZM5.47835 25.187L5.16315 25.4622L5.41853 25.7263C5.45328 25.7623 5.49538 25.7772 5.54505 25.771C5.59403 25.7655 5.64138 25.7429 5.68674 25.7033C5.74633 25.6511 5.7763 25.6034 5.77653 25.5596C5.77618 25.5165 5.76137 25.4797 5.7321 25.4494L5.47835 25.187Z" fill="white"/>
<path d="M5.83416 27.828C5.79766 27.7994 5.75801 27.7618 5.71533 27.7154C5.67137 27.6691 5.63708 27.6159 5.61224 27.5559C5.5874 27.496 5.58134 27.4289 5.5937 27.3546C5.60676 27.2809 5.65061 27.2013 5.72512 27.1155L6.48089 26.246C6.54678 26.1702 6.6143 26.117 6.68357 26.0866C6.7533 26.0552 6.81989 26.0409 6.88332 26.0432C6.94676 26.0455 7.00822 26.0597 7.06781 26.0858C7.12786 26.1111 7.18069 26.1418 7.2264 26.1777C7.34873 26.2738 7.45321 26.3592 7.53997 26.4342C7.62708 26.5086 7.70323 26.5747 7.76818 26.6327C7.83337 26.6917 7.89156 26.7448 7.9431 26.7921L7.66661 27.1102L7.04285 26.6205C7.00145 26.588 6.96145 26.5718 6.92262 26.5721C6.88391 26.5723 6.84752 26.5921 6.81336 26.6314L6.65791 26.8103L7.28191 27.3357L7.02384 27.6326L6.36463 27.1477L6.21688 27.3178C6.18878 27.35 6.17233 27.3792 6.16755 27.405C6.16289 27.4319 6.16569 27.4568 6.17583 27.4797C6.18668 27.5031 6.203 27.5233 6.22469 27.5402L6.85965 28.0387L6.58468 28.355C6.51121 28.3091 6.43052 28.2566 6.34259 28.1975C6.25525 28.1388 6.16802 28.0772 6.08068 28.0127C5.9945 27.9479 5.91229 27.8864 5.83416 27.828Z" fill="white"/>
<path d="M7.44446 28.9108L6.99072 28.6524L8.70201 27.1814L9.25266 27.4951L8.69431 29.6228L8.23742 29.3626L8.34692 28.98L7.74579 28.6376L7.44446 28.9108ZM8.74737 27.6961L8.08455 28.3204L8.48161 28.5465L8.74737 27.6961Z" fill="white"/>
<path d="M9.679 30.0423L9.20496 29.8521L10.0641 27.9197L10.9191 28.2629C11.0047 28.2972 11.0792 28.3391 11.1425 28.3885C11.2053 28.4369 11.2532 28.4958 11.2859 28.5652C11.3186 28.6345 11.3319 28.7164 11.3256 28.8106C11.3196 28.9042 11.289 29.0135 11.2334 29.1382C11.1957 29.2231 11.1553 29.2925 11.1122 29.3464C11.0694 29.3994 11.0249 29.4407 10.9789 29.4701C10.9335 29.4999 10.8872 29.5205 10.8402 29.5325C10.7932 29.5442 10.7462 29.5522 10.6991 29.5563L10.7256 30.4626L10.2439 30.2691L10.2448 29.4596C10.2264 29.4521 10.2059 29.4435 10.1832 29.4336C10.161 29.4229 10.1391 29.4134 10.1178 29.4048C10.0957 29.3959 10.0731 29.3868 10.0502 29.3777C10.0273 29.3685 10.0059 29.3599 9.98604 29.3519L9.679 30.0423ZM10.3585 28.5141L10.1442 28.9961L10.4399 29.1148C10.4731 29.1281 10.5041 29.1357 10.533 29.1373C10.5622 29.14 10.5904 29.1353 10.6176 29.123C10.6444 29.1098 10.6694 29.0896 10.6928 29.0627C10.7157 29.0346 10.7375 28.9975 10.758 28.9511C10.7789 28.9042 10.7918 28.8634 10.7966 28.829C10.8005 28.7949 10.7971 28.7663 10.7866 28.743C10.7756 28.7188 10.7589 28.6976 10.7364 28.6795C10.7148 28.6617 10.6873 28.6462 10.6541 28.6328L10.3585 28.5141Z" fill="white"/>
<path d="M11.7558 30.7632L11.2635 30.6203L11.9083 28.614L12.4004 28.7568L11.7558 30.7632Z" fill="white"/>
<path d="M12.8099 30.974L12.2889 30.8867L13.3338 28.9316L13.966 29.0375L14.245 31.2143L13.7205 31.1264L13.6788 30.732L12.9886 30.6164L12.8099 30.974ZM13.5698 29.3969L13.1857 30.205L13.6415 30.2814L13.5698 29.3969Z" fill="white"/>
<path d="M17.0369 31.2464L16.3956 31.2727L15.6291 29.2043L16.1612 29.1826L16.6947 30.7309L17.0873 29.1447L17.6135 29.123L17.0369 31.2464Z" fill="white"/>
<path d="M18.5444 31.086L18.0246 31.1799L18.2733 28.9997L18.904 28.886L19.9759 30.8279L19.4527 30.9223L19.2668 30.5673L18.5781 30.6916L18.5444 31.086ZM18.6674 29.3555L18.6092 30.2407L19.064 30.1585L18.6674 29.3555Z" fill="white"/>
<path d="M21.0128 30.5132L20.5287 30.6718L19.8092 28.6887L20.1945 28.5624L21.4289 29.5007L20.9935 28.3006L21.48 28.1411L22.1995 30.1244L21.8108 30.2518L20.5786 29.3164L21.0128 30.5132Z" fill="white"/>
<path d="M23.3903 29.5703C23.2692 29.6312 23.157 29.6578 23.0539 29.65C22.9515 29.642 22.8553 29.6067 22.7653 29.5443C22.6753 29.4818 22.5901 29.3979 22.5099 29.2926C22.4285 29.187 22.3504 29.0669 22.2755 28.9322C22.1947 28.7866 22.1317 28.6507 22.0868 28.5242C22.0427 28.3973 22.0239 28.2798 22.0308 28.1711C22.0372 28.062 22.0771 27.9609 22.1505 27.8681C22.2229 27.7749 22.3364 27.6896 22.4909 27.6119C22.5874 27.5634 22.6748 27.5244 22.7533 27.4944C22.8318 27.4645 22.9078 27.4397 22.9812 27.4201C23.0538 27.4008 23.1293 27.3824 23.2074 27.3647L23.3933 27.6991C23.3516 27.7139 23.2996 27.7337 23.237 27.7582C23.1748 27.7834 23.1055 27.8126 23.0288 27.8458C22.9522 27.8792 22.8727 27.9164 22.7905 27.9578C22.6848 28.0108 22.6146 28.0672 22.5799 28.1268C22.5448 28.1875 22.5413 28.2629 22.5696 28.353C22.5971 28.4434 22.6509 28.5603 22.7306 28.7037C22.7924 28.8149 22.8476 28.903 22.8965 28.968C22.9447 29.0334 22.991 29.0799 23.0353 29.1077C23.08 29.1361 23.1256 29.148 23.1722 29.1436C23.218 29.1396 23.2671 29.1245 23.3196 29.0981C23.3876 29.0639 23.4481 29.0284 23.501 28.9915C23.5528 28.9543 23.5931 28.9232 23.6219 28.8984L23.458 28.6034L23.1508 28.7577L22.9604 28.4151C22.9961 28.3912 23.0388 28.3646 23.0887 28.3352C23.1386 28.3058 23.1914 28.2755 23.2474 28.2441C23.3025 28.2129 23.354 28.1854 23.4014 28.1615C23.4624 28.131 23.5166 28.1046 23.5641 28.0824C23.6112 28.0596 23.6549 28.0403 23.6951 28.0245L24.2936 29.1015L23.9513 29.2734L23.8211 29.1785C23.7901 29.2302 23.738 29.2947 23.6649 29.3719C23.5924 29.4487 23.5009 29.5149 23.3903 29.5703Z" fill="white"/>
<path d="M25.5806 28.2542C25.4819 28.3234 25.3842 28.3805 25.2876 28.4255C25.1899 28.4702 25.0925 28.4949 24.9955 28.4995C24.8985 28.504 24.8033 28.4822 24.7102 28.434C24.617 28.3858 24.5256 28.304 24.4362 28.1889L23.5535 27.0513L23.9676 26.761L24.8489 27.8967C24.888 27.947 24.9309 27.9793 24.9779 27.9937C25.0254 28.0086 25.0766 28.0078 25.1314 27.9912C25.1867 27.9751 25.2453 27.9454 25.3072 27.902C25.3679 27.8595 25.4144 27.8156 25.4468 27.7701C25.4804 27.7247 25.4964 27.6785 25.4946 27.6315C25.494 27.5847 25.4742 27.536 25.4353 27.4857L24.5539 26.35L24.9681 26.0598L25.8509 27.1974C25.9403 27.3126 25.9958 27.4194 26.0174 27.5178C26.0384 27.6167 26.0319 27.7098 25.9979 27.7968C25.9647 27.8836 25.9118 27.9642 25.8391 28.0388C25.766 28.1128 25.6798 28.1845 25.5806 28.2542Z" fill="white"/>
<path d="M26.9874 27.1007L26.6146 27.4574L25.5219 25.526L25.9744 25.093L28.0142 26.1181L27.6389 26.4773L27.2744 26.2846L26.7804 26.7572L26.9874 27.1007ZM26.0587 25.6074L26.5375 26.3686L26.8638 26.0564L26.0587 25.6074Z" fill="white"/>
<path d="M28.6787 25.3097L28.3708 25.7015L26.6022 24.4462L27.1576 23.7394C27.2133 23.6686 27.2739 23.61 27.3396 23.5633C27.4041 23.5169 27.4757 23.4869 27.5542 23.4733C27.633 23.4599 27.7197 23.4671 27.8145 23.4956C27.9086 23.5234 28.0129 23.5779 28.1272 23.659C28.2048 23.7142 28.2661 23.768 28.3108 23.8207C28.3549 23.8729 28.3864 23.9238 28.4054 23.9734C28.4249 24.0224 28.435 24.07 28.4357 24.1162C28.4364 24.1623 28.4334 24.2077 28.4264 24.2521L29.3586 24.4446L29.0456 24.8428L28.2188 24.648C28.2068 24.6634 28.1931 24.6802 28.1775 24.6988C28.1613 24.7167 28.1464 24.7346 28.1324 24.7523C28.1181 24.7705 28.1034 24.7891 28.0886 24.8081C28.0736 24.827 28.0598 24.8447 28.0468 24.8612L28.6787 25.3097ZM27.28 24.317L27.7212 24.6301L27.9133 24.3856C27.9349 24.3582 27.95 24.3313 27.9585 24.3051C27.9682 24.2787 27.9701 24.2515 27.9641 24.2235C27.957 24.1957 27.9425 24.1678 27.9205 24.1397C27.8974 24.1119 27.8647 24.083 27.8222 24.0528C27.7792 24.0223 27.7407 24.0007 27.7067 23.9881C27.6728 23.9764 27.6428 23.9726 27.6164 23.9767C27.589 23.9811 27.5633 23.9914 27.5396 24.0077C27.5162 24.0235 27.4937 24.0451 27.4722 24.0724L27.28 24.317Z" fill="white"/>
<path d="M30.1146 23.1592L29.6586 23.9563L27.7194 22.9542L28.1753 22.1573C28.25 22.0267 28.3359 21.9324 28.433 21.8742C28.5295 21.8156 28.6357 21.7838 28.7518 21.7788C28.8667 21.774 28.9892 21.7927 29.1193 21.8348C29.2491 21.8758 29.3837 21.9324 29.5231 22.0043C29.7456 22.1193 29.9143 22.2376 30.029 22.3594C30.1441 22.4804 30.208 22.607 30.2207 22.7394C30.2342 22.872 30.1988 23.012 30.1146 23.1592ZM28.3708 22.7341L29.4999 23.3175L29.6859 22.9924C29.7247 22.9248 29.7351 22.8609 29.7177 22.8007C29.6997 22.7411 29.6539 22.681 29.5799 22.6202C29.5061 22.5595 29.4058 22.4965 29.2791 22.4309C29.1586 22.3688 29.0575 22.3246 28.9756 22.2988C28.8934 22.2719 28.8263 22.2602 28.774 22.2636C28.7212 22.2667 28.6781 22.2808 28.6445 22.3059C28.6105 22.3318 28.5813 22.3661 28.5568 22.4089L28.3708 22.7341Z" fill="white"/>
<path d="M30.8546 21.5967L30.6776 22.0705L28.8224 20.7667L29.0372 20.1917L31.3423 20.2918L31.164 20.7688L30.7478 20.7423L30.5132 21.37L30.8546 21.5967ZM29.3444 20.6227L30.1191 21.117L30.274 20.7024L29.3444 20.6227Z" fill="white"/>
<path d="M0 16.0596C0 15.6131 0.380975 15.2511 0.850808 15.251C1.32076 15.251 1.70162 15.6131 1.70162 16.0596C1.70162 16.5062 1.32064 16.8682 0.850808 16.8682C0.380858 16.8682 0 16.5062 0 16.0596Z" fill="white"/>
<path d="M30.2984 16.0596C30.2984 15.6131 30.6794 15.2511 31.1492 15.251C31.6191 15.251 32 15.6131 32 16.0596C32 16.5062 31.619 16.8682 31.1492 16.8682C30.6792 16.8682 30.2984 16.5062 30.2984 16.0596Z" fill="white"/>
</g>
<defs>
<clipPath id="clip0_72_38">
<rect width="32" height="32" fill="white"/>
</clipPath>
</defs>
</svg>
