<svg width="24" height="24" viewBox="0 0 24 24" fill="none" xmlns="http://www.w3.org/2000/svg">
<path d="M19.5321 3.83264C18.5234 2.81709 17.3228 2.0121 16.0002 1.46446C14.6775 0.916809 13.259 0.637465 11.8273 0.642649C9.91329 0.644519 8.03329 1.14892 6.3757 2.10534C4.7181 3.06176 3.34106 4.43663 2.38244 6.09225C1.42383 7.74788 0.917317 9.62619 0.913602 11.5389C0.909901 13.4518 1.40915 15.332 2.36134 16.9914L0.820374 22.6426L6.59898 21.1301C8.19464 22.0172 9.98759 22.4901 11.8135 22.5051C14.7161 22.5052 17.5013 21.3594 19.5626 19.3173C21.6241 17.2753 22.7949 14.5021 22.8204 11.6014C22.8107 10.1539 22.5152 8.7226 21.951 7.38949C21.3867 6.05636 20.5647 4.84766 19.5321 3.83264ZM11.8273 20.6213C10.2006 20.6224 8.60363 20.1855 7.20436 19.3563L6.87416 19.1501L3.44827 20.0576L4.35633 16.7164L4.1362 16.3726C2.96568 14.4843 2.52883 12.2325 2.90841 10.0438C3.28798 7.85513 4.45761 5.8816 6.19572 4.49708C7.93384 3.11254 10.1197 2.41317 12.3392 2.53147C14.5587 2.64974 16.6579 3.57747 18.2388 5.13888C19.9668 6.82764 20.9561 9.13119 20.9905 11.5464C20.9687 13.9607 19.9937 16.2688 18.2776 17.9684C16.5616 19.6679 14.2433 20.6215 11.8273 20.6213ZM16.7941 13.8289C16.5189 13.6914 15.1844 13.0314 14.9367 12.9489C14.689 12.8664 14.4964 12.8114 14.3176 13.0864C14.0484 13.455 13.759 13.8084 13.4508 14.1451C13.2994 14.3376 13.1343 14.3514 12.8591 14.1451C11.2903 13.5255 9.98319 12.3843 9.15808 10.9139C8.86915 10.4326 9.43326 10.4601 9.95608 9.42888C9.99475 9.35449 10.0148 9.27199 10.0148 9.18826C10.0148 9.10452 9.99475 9.02202 9.95608 8.94763C9.95608 8.81012 9.33695 7.46262 9.11681 6.92638C8.89667 6.39013 8.67653 6.47263 8.49767 6.45888H7.96109C7.82206 6.46101 7.68509 6.49278 7.55934 6.55206C7.43358 6.61134 7.32194 6.69676 7.23188 6.80263C6.92316 7.10262 6.68238 7.46526 6.52573 7.8661C6.36909 8.26694 6.30024 8.69668 6.32381 9.12638C6.41008 10.155 6.7977 11.1354 7.43826 11.9451C8.61077 13.6993 10.2176 15.1204 12.1024 16.0701C13.091 16.6468 14.2398 16.888 15.377 16.7576C15.7556 16.6825 16.1143 16.5287 16.4295 16.3059C16.7449 16.0833 17.0097 15.7968 17.2069 15.4651C17.3896 15.0603 17.4471 14.6103 17.372 14.1726C17.2481 14.0351 17.0693 13.9664 16.7941 13.8289Z" fill="black"/>
</svg>
